<svg xmlns="http://www.w3.org/2000/svg" viewBox="0 0 250 500"><defs><style>.cls-1{fill:#a3a1a8}.cls-2{fill:#bbbcc0}.cls-3{fill:#dbdada}.cls-4{fill:#e86097}.cls-5{fill:#de3576}.cls-6{fill:#eecd49}</style></defs><path class="cls-1" d="M169.36 16.06A15.36 15.36 0 0 0 154 .71H96.7a15.36 15.36 0 0 0-15.35 15.35v.25h88z"/><path class="cls-2" d="M48.54 500H227a23.22 23.22 0 0 0 23.22-23.22v-15.59H48.54zM.53 476v.73A23.22 23.22 0 0 0 23.76 500C10.93 500 .53 489.27.53 476zM23.76 16.31A23.22 23.22 0 0 0 .53 39.53v.73c0-13.26 10.4-23.95 23.23-23.95zM227 16.31H48.54v38.81h201.64V39.53A23.22 23.22 0 0 0 227 16.31z"/><path class="cls-3" d="M48.54 16.31H23.76C10.93 16.31.53 27 .53 40.27v14.85h48zM.53 461.19V476c0 13.23 10.4 24 23.22 24h24.79v-38.81z"/><path class="cls-4" d="M.53 55.12h48.01V461.2H.53z"/><path class="cls-5" d="M48.54 461.19h201.64V55.12H48.54zm103.73-349.88a.52.52 0 0 1 .91.45v120h37.18l-82.64 157.61a.52.52 0 0 1-.9-.45V259.66H60.36z"/><path class="cls-6" d="M106.81 388.92a.52.52 0 0 0 .9.45l82.64-157.59h-37.17v-120a.52.52 0 0 0-.91-.45L60.36 259.67h46.41z"/></svg>
