<svg xmlns="http://www.w3.org/2000/svg" viewBox="0 0 250 500"><defs><style>.cls-1{fill:#a3a1a8}.cls-2{fill:#bbbcc0}.cls-3{fill:#dbdada}.cls-4{fill:#9fcd55}.cls-5{fill:#56a546}.cls-6{fill:#eecd49}</style></defs><path class="cls-1" d="M168.07 15.38A15.38 15.38 0 0 0 152.69 0H95.31a15.38 15.38 0 0 0-15.38 15.38v.25h88.14z"/><path class="cls-2" d="M47.08 500h178.66A23.26 23.26 0 0 0 249 476.74v-15.6H47.08zM-1 476v.73A23.26 23.26 0 0 0 22.26 500C9.41 500-1 489.26-1 476zM22.26 15.63A23.26 23.26 0 0 0-1 38.88v.73c0-13.24 10.41-23.98 23.26-23.98zM225.74 15.63H47.08v38.86H249V38.88a23.26 23.26 0 0 0-23.26-23.25z"/><path class="cls-3" d="M47.08 15.63H22.26C9.41 15.63-1 26.37-1 39.61v14.88h48.08zM-1 461.14V476c0 13.25 10.41 24 23.26 24h24.82v-38.86z"/><path class="cls-4" d="M-1 54.49h48.08v406.65H-1z"/><path class="cls-5" d="M47.08 54.49v406.65H249V54.49zm59.26 334.73a.52.52 0 0 1-.91-.45V259.33H58.91l92-148.56a.52.52 0 0 1 .91.45V231.4h37.23z"/><path class="cls-6" d="M151.86 111.21a.52.52 0 0 0-.91-.45l-92 148.56h46.48v129.44a.52.52 0 0 0 .91.45l82.75-157.81h-37.23z"/></svg>
