<svg xmlns="http://www.w3.org/2000/svg" viewBox="0 0 500 500"><defs><style>.cls-1{fill:none}.cls-2{fill:#e1ad26}.cls-3{fill:#ca972b}.cls-4{fill:#fcc62f}.cls-5{fill:#ffd74a}</style></defs><path class="cls-1" d="M329.63 428.53zM154.47 410q-9-3.72-17.15-7.95c5.42 2.82 11.15 5.47 17.15 7.95zM388 414.57v67.86-67.86zM14.6 258q-1.42-2-2.7-3.93 1.29 1.93 2.7 3.93zM21.88 266.93c-.45-.49-.85-1-1.29-1.5.41.5.84 1 1.29 1.5zM96.08 439.3v-60.39 60.39z"/><path class="cls-2" d="M458.44 371.4v67.86c12.68-13.87 20.18-29.27 21.47-45.31h.27v-68.31h-.24c-1.19 16.2-8.7 31.76-21.51 45.77zM358.81 423.09q-8.36 2-17.16 3.53v67.86q8.78-1.56 17.13-3.52v-67.87zM388 414.57q-8.28 2.93-17.15 5.41v67.86q8.86-2.49 17.14-5.41v-67.86zM96.08 378.91c-1.26-.42-2.52-.84-3.76-1.28v.11c-.83-.29-1.6-.63-2.42-.94-1.87-.68-3.67-1.4-5.49-2.12-1.37-.54-2.8-1-4.15-1.6V373c-2-.82-4-1.62-5.94-2.48v17.55c0 1.28-.18 2.58-.12 3.85 0 .29.1.57.12.85v1.16h.16c1.47 18.19 10.93 35.55 26.89 50.8q-2.76-2.69-5.3-5.45zM108.12 383v67.83A155.43 155.43 0 0 0 125.27 463v-67.77A154.58 154.58 0 0 1 108.12 383zM329.63 428.53c-5.62.79-11.31 1.49-17.15 2v67.63c5.77-.54 11.59-1 17.14-1.8v-67.83zM304.93 499l-1.5.11zM283.29 432v67.74c5.79-.09 11.53-.25 17.14-.59v-67.7c-5.62.34-11.35.55-17.14.55zM224.9 428.55v67.76c5.57.78 11.35 1.32 17.14 1.85v-67.6c-5.84-.56-11.53-1.22-17.14-2.01zM254.08 431.46v67.6c5.66.34 11.3.69 17.14.78v-67.79c-5.79-.05-11.52-.26-17.14-.59zM247.78 498.77l-.64-.05zM154.47 410c-6-2.48-11.73-5.13-17.15-7.95v67.74c5.39 2.81 11.18 5.39 17.14 7.86V410zM164.09 481.49c-1.86-.68-3.68-1.4-5.49-2.12 1.83.72 3.63 1.44 5.49 2.12zM183.66 420q-8.87-2.48-17.15-5.4v67.67q8.26 2.92 17.13 5.39V420zM212.86 426.65q-8.79-1.56-17.15-3.52V491c5.56 1.3 11.29 2.44 17.14 3.48v-67.83zM400 410v67.86c6-2.5 11.7-5.23 17.14-8.07V402q-8.07 4.24-17.14 8zM446.39 382.86a154 154 0 0 1-17.15 12.25V463a154 154 0 0 0 17.14-12.25v-67.89z"/><path class="cls-3" d="M429.24 395.11c-3.84 2.38-7.84 4.69-12 6.88v67.86c4.21-2.2 8.21-4.5 12-6.88v-67.86zM400 410q-5.84 2.42-12 4.61v67.86q6.19-2.19 12-4.61V410zM370.85 420q-5.9 1.65-12 3.11V491q6.15-1.45 12-3.11V420zM341.65 426.62q-5.92 1.05-12 1.91v67.86q6.1-.86 12-1.91v-67.86zM300.43 431.45v67.86c1-.06 2-.16 3-.22l1.5-.11c2.52-.18 5.06-.34 7.55-.56v-67.86q-5.95.54-12.05.89zM277.16 432.14c-2 0-4-.06-5.93-.09v67.79c2 0 3.92.16 5.93.16s4.08-.06 6.12-.09V432c-2.03.08-4.05.14-6.12.14zM458.44 371.4q-2.65 2.9-5.6 5.71l-.19.18c-2 1.89-4.07 3.74-6.26 5.56v67.86q3.28-2.72 6.25-5.56l.2-.19q2.94-2.81 5.6-5.71V371.4zM254.08 431.46q-6.09-.36-12-.89v67.73c1.69.15 3.41.27 5.1.42l.64.05c2.1.18 4.17.39 6.31.52v-67.83zM212.86 426.65v67.83c3.93.7 8 1.26 12 1.83v-67.76q-6.08-.85-12-1.9zM183.66 420v67.79c2.36.66 4.79 1.27 7.18 1.9 1.63.43 3.2.89 4.87 1.29v-67.84q-6.16-1.45-12.05-3.14zM166.51 414.64q-6.19-2.18-12-4.6v67.74c1.35.56 2.78 1.06 4.15 1.6 1.81.72 3.62 1.43 5.49 2.12.82.3 1.59.64 2.42.94v-67.8zM125.27 395.23V463c3.84 2.38 7.84 4.67 12 6.86v-67.77c-4.16-2.19-8.16-4.49-12-6.86zM108.13 383c-.22-.18-.4-.37-.62-.55q-5.85-1.68-11.43-3.56v60.41q2.53 2.76 5.3 5.45c2.13 2.08 4.36 4.12 6.76 6.11z"/><path class="cls-4" d="M419.4 268.45l-.19.08c11.94 10.7 20.14 22.88 23 36.15 11.57 53-61.64 101.71-165.08 101.71-29.93 0-57.21-4.18-80.75-11.26-5.62-.09-11.07-.43-16.52-.75v.23c-2.14-.13-4.21-.34-6.31-.52l-.64-.05c-1.69-.15-3.41-.26-5.1-.42v-.13c-5.79-.53-11.57-1.07-17.14-1.85-4.05-.57-8.11-1.13-12-1.83-5.85-1-11.58-2.17-17.14-3.48-1.67-.39-3.25-.86-4.87-1.29-2.4-.63-4.82-1.24-7.18-1.9V383l-1.94-.55c.21.18.4.37.62.55a154.58 154.58 0 0 0 17.15 12.21c3.84 2.38 7.84 4.67 12.05 6.86q8.13 4.23 17.15 7.95 5.84 2.42 12 4.6 8.27 2.92 17.15 5.4 5.9 1.65 12 3.1 8.36 2 17.15 3.52 5.93 1 12 1.9c5.61.79 11.3 1.48 17.14 2q5.95.54 12 .89c5.62.33 11.35.51 17.15.59 2 0 3.94.09 5.93.09s4.08-.06 6.12-.09c5.79-.09 11.52-.26 17.14-.6q6.1-.36 12.05-.9c5.84-.54 11.54-1.24 17.15-2q6.1-.86 12-1.91 8.79-1.56 17.16-3.53 6.15-1.45 12-3.11 8.87-2.49 17.15-5.41 6.19-2.19 12-4.61 9-3.73 17.15-8c4.21-2.2 8.21-4.5 12-6.88a154 154 0 0 0 17.15-12.25c2.19-1.82 4.27-3.68 6.26-5.56l.19-.18q3-2.81 5.6-5.71c12.81-14 20.32-29.57 21.51-45.77a63.12 63.12 0 0 0-1.94-21c-4.75-17.85-17.16-34-34.94-47.77a208.2 208.2 0 0 1-23.67 11.55z"/><path class="cls-5" d="M407.34 273.06l-1.36.49v15.71h-.27c-1.29 16-8.79 31.44-21.47 45.31q-2.65 2.9-5.6 5.71l-.2.19q-3 2.83-6.25 5.56A154 154 0 0 1 355 358.29c-3.84 2.38-7.84 4.69-12 6.88v-.11c-5.44 2.84-11.1 5.57-17.14 8.07q-5.84 2.42-12 4.61-8.27 2.93-17.14 5.41-5.9 1.65-12 3.11-8.35 2-17.13 3.52-5.91 1.05-12 1.91c-5.55.78-11.37 1.26-17.14 1.8v.23c-2.48.23-5 .39-7.55.56l-1.5.11c-1 .07-2 .16-3 .22v-.12c-5.61.34-11.35.5-17.14.59v.12c-2 0-4.06.09-6.12.09s-3.94-.13-5.93-.16h-.62c23.55 7.08 50.82 11.26 80.75 11.26 103.44 0 176.65-48.73 165.08-101.71-2.9-13.27-11.1-25.45-23-36.15q-5.76 2.38-11.86 4.53z"/><path class="cls-2" d="M390.2 278.47c-2 .55-3.94 1.11-6 1.63v54.47c12.68-13.87 20.18-29.27 21.47-45.31h.33v-15.71q-7.63 2.65-15.78 4.92zM173.58 394.09l-.64-.05zM167.84 325.88c-5.84-.53-11.53-1.23-17.14-2v67.76c5.57.78 11.35 1.32 17.14 1.85zM197 327.37c-5.8-.09-11.53-.26-17.15-.59v67.6c5.45.32 10.89.66 16.52.75h.62zM255.42 391.7v-67.86c-5.62.79-11.31 1.49-17.15 2v67.66c5.73-.5 11.6-1.02 17.15-1.8zM226.23 394.51v-67.74c-5.62.33-11.35.51-17.14.6v67.73c5.79-.1 11.53-.25 17.14-.59zM230.73 394.29l-1.5.11zM138.64 322q-8.79-1.56-17.15-3.52v67.87c5.56 1.3 11.29 2.44 17.14 3.48zM325.85 373.14c6-2.5 11.7-5.23 17.14-8.07v-67.76q-8.13 4.24-17.15 8zM80.26 305.35q-9-3.72-17.15-7.95v67.74c3.59 1.87 7.35 3.66 11.2 5.38 1.92.86 4 1.66 5.94 2.48zM89.9 376.81c-1.86-.68-3.68-1.4-5.49-2.12 1.82.71 3.59 1.44 5.49 2.12zM109.46 315.35q-8.87-2.48-17.15-5.4v67.67c1.24.44 2.5.86 3.76 1.28q5.59 1.88 11.43 3.56l1.94.55v-67.66zM296.66 383.16q8.86-2.49 17.14-5.41v-67.86q-8.28 2.93-17.15 5.41zM267.47 389.79q8.78-1.56 17.13-3.52v-67.86q-8.36 2-17.16 3.53zM21.88 266.92c-.45-.49-.85-1-1.29-1.5q-3.24-3.66-6-7.45-1.42-2-2.7-3.93a81.22 81.22 0 0 1-5.27-9.28A66.68 66.68 0 0 1 .18 221H.13v62.45c0 1.28-.18 2.57-.12 3.85 0 .29.1.57.12.85v1.16h.16c1.47 18.19 10.93 35.55 26.89 50.8q-2.76-2.69-5.3-5.45zM33.92 278.33v67.83a155.43 155.43 0 0 0 17.14 12.11v-67.73a154.58 154.58 0 0 1-17.14-12.21zM355 358.29A154 154 0 0 0 372.19 346v-63.07c-2.78.6-5.58 1.18-8.43 1.71q-4.18 3-8.72 5.8z"/><path class="cls-3" d="M343 365.17c4.21-2.2 8.21-4.5 12-6.88v-67.86c-3.84 2.38-7.84 4.69-12 6.88v67.86zM313.8 377.75q6.19-2.19 12-4.61v-67.86q-5.84 2.42-12 4.61zM284.6 386.27q6.15-1.45 12-3.11V315.3q-5.9 1.65-12 3.11zM255.42 391.7q6.1-.86 12-1.91v-67.86q-5.92 1.05-12 1.91zM226.23 394.63c1-.06 2-.16 3-.22l1.5-.11c2.52-.18 5.06-.34 7.55-.56v-67.87q-5.95.54-12.05.9v67.86zM203 395.32c2.06 0 4.08-.06 6.12-.09v-67.86c-2 0-4.06.09-6.12.09s-4-.06-5.93-.09v67.79c1.93.03 3.88.16 5.93.16zM378.15 281.58q-3 .7-6 1.34V346q3.28-2.73 6.25-5.56l.2-.19q2.94-2.81 5.6-5.71v-54.43c-1.96.51-4 .99-6.05 1.47zM179.89 326.78q-6.09-.36-12-.89v67.73c1.69.15 3.41.27 5.1.42l.64.05c2.1.18 4.17.39 6.31.52v-67.83zM150.7 323.87q-6.11-.86-12-1.9v67.83c3.93.7 8 1.26 12 1.83zM121.5 318.45q-6.15-1.44-12-3.1v67.79c2.36.66 4.79 1.27 7.18 1.9 1.63.43 3.2.89 4.87 1.29zM92.32 310q-6.19-2.18-12-4.6v67.74c1.35.56 2.78 1.06 4.15 1.6 1.81.72 3.62 1.43 5.49 2.12.82.3 1.59.64 2.42.94V310zM51.07 290.54v67.74c3.84 2.38 7.84 4.67 12 6.86v-67.73a196.82 196.82 0 0 1-12-6.87zM33.93 278.34c-2.19-1.81-4.26-3.66-6.25-5.53l-.21-.21q-2.94-2.79-5.58-5.67v67.69q2.53 2.76 5.3 5.45c2.13 2.08 4.36 4.12 6.76 6.11z"/><path class="cls-4" d="M11.9 254.05q1.29 2 2.7 3.93 2.75 3.79 6 7.45c.44.5.84 1 1.29 1.5q2.65 2.88 5.58 5.67l.21.21c2 1.88 4.06 3.73 6.25 5.53a154.58 154.58 0 0 0 17.15 12.21c3.84 2.38 7.84 4.67 12.05 6.86q8.13 4.23 17.15 7.95 5.84 2.42 12 4.6 8.27 2.92 17.15 5.4 5.9 1.65 12 3.1 8.36 2 17.15 3.52 5.93 1 12 1.9c5.61.79 11.3 1.48 17.14 2q5.95.54 12 .89c5.62.33 11.35.51 17.15.59 2 0 3.94.09 5.93.09s4.08-.06 6.12-.09c5.79-.09 11.52-.26 17.14-.6q6.1-.36 12.05-.9c5.84-.54 11.54-1.24 17.15-2q6.1-.86 12-1.91 8.79-1.56 17.16-3.53 6.15-1.45 12-3.11 8.87-2.49 17.15-5.41 6.19-2.19 12-4.61 9-3.73 17.15-8c4.21-2.2 8.21-4.5 12-6.88q4.54-2.82 8.72-5.8c-.9.17-1.83.31-2.74.47q-5.92 1.05-12 1.91a376.7 376.7 0 0 1-52.46 3.61c-2 0-3.94-.13-5.93-.16-2.14 0-4.25-.11-6.36-.17-23.39 7.2-50.85 11.43-80.95 11.43C99.52 301.7 26.31 253 37.89 200c5.08-23.23 26-43.27 55.79-57.5v-19.86C46.21 139.41 10.95 166.78 2.12 200a63.1 63.1 0 0 0-1.94 21 66.68 66.68 0 0 0 6.45 23.82 81.22 81.22 0 0 0 5.27 9.23z"/><path class="cls-5" d="M244.24 286.94c-4.06-.57-8.11-1.13-12-1.83-5.85-1-11.58-2.17-17.14-3.48-1.67-.39-3.25-.86-4.87-1.29-34.27-8.66-62.64-22.24-82.77-38.93-2.37-2-4.58-4-6.68-6-16-15.25-25.42-32.61-26.89-50.81h-.16v-1.16c0-.29-.1-.57-.12-.85-.06-1.28.1-2.57.12-3.85V142.5C63.86 156.73 43 176.76 37.89 200 26.31 253 99.52 301.7 203 301.7c30.14 0 57.59-4.23 81.25-11.41a370.34 370.34 0 0 1-40-3.36z"/><path class="cls-2" d="M497.35 163.17a63.07 63.07 0 0 1 1.91 21.41h.27v-68.31h-.24a68.6 68.6 0 0 1-9.42 29.46 71.87 71.87 0 0 1 7.48 17.44zM93.67 184.58h.16c0-.39-.13-.77-.16-1.16zM93.67 178.71a63.46 63.46 0 0 1 2-15.55 71.87 71.87 0 0 1 7.48-17.44 68.59 68.59 0 0 1-9.42-29.46h-.05v62.45zM472 235.79q-3 2.83-6.26 5.56c2.18-1.82 4.26-3.67 6.26-5.56zM436.54 260.49v-67.86q-8.13 4.24-17.15 8v67.86a208.2 208.2 0 0 0 23.67-11.55c1.89-1.08 3.72-2.18 5.52-3.3-3.83 2.36-7.83 4.65-12.04 6.85zM407.35 273.06q6.09-2.16 11.86-4.53l.18-.07q-5.84 2.41-12.04 4.6zM390.2 278.48q-5.9 1.65-12 3.11c2-.48 4.09-1 6.09-1.47s3.93-1.12 5.91-1.64zM378.15 281.58v-67.86q-8.36 2-17.16 3.53v67.86c.91-.16 1.84-.3 2.74-.47 2.85-.53 5.65-1.11 8.43-1.71q3.04-.65 5.99-1.35zM390.2 278.47q8.13-2.28 15.78-4.92l1.36-.49v-67.85q-8.28 2.93-17.15 5.41zM361 285.11q-5.91 1.05-12 1.91 6.08-.86 12-1.91z"/><path class="cls-2" d="M93.67 183.42c0 .39.13.77.16 1.16 1.47 18.2 10.93 35.56 26.89 50.81q-2.76-2.69-5.3-5.45v-67.7a94.27 94.27 0 0 1-12.28-16.51 71.87 71.87 0 0 0-7.48 17.44 63.46 63.46 0 0 0-2 15.55c0 1.28-.18 2.58-.12 3.85.03.28.12.56.13.85zM215 281.64c5.56 1.3 11.29 2.44 17.14 3.48v-67.84q-8.79-1.56-17.15-3.52zM244.23 286.94c-4.05-.57-8.11-1.13-12-1.83 3.89.7 7.94 1.26 12 1.83zM290.58 222.68c-5.8-.09-11.53-.26-17.15-.59v67.83c-4.09-.24-8.06-.63-12.05-1V221.2c-5.84-.53-11.53-1.23-17.14-2v67.76a370.34 370.34 0 0 0 40 3.36c2.12.07 4.22.14 6.36.17zM349 219.16c-5.61.79-11.31 1.49-17.15 2V289q-5.95.54-12.05.9v-67.82c-5.62.33-11.35.51-17.14.6v67.86c-2 0-4.06.09-6.12.09A376.7 376.7 0 0 0 349 287zM497.35 163.17a71.87 71.87 0 0 0-7.48-17.44A94.12 94.12 0 0 1 477.78 162v67.86q-2.66 2.9-5.6 5.71c16.09-15.3 25.6-32.75 27.08-51a63.07 63.07 0 0 0-1.91-21.4zM465.73 173.5a154 154 0 0 1-17.15 12.25v67.85a154 154 0 0 0 17.14-12.25zM472.18 167.75l-.19.18zM127.48 241.49l-.07-.06c20.13 16.68 48.5 30.27 82.77 38.93-2.4-.63-4.82-1.24-7.18-1.9v-67.79q-8.87-2.48-17.15-5.4v67.79c-4.15-1.47-8.14-3-12.05-4.65v-67.74q-9-3.72-17.15-7.95v67.74a181.58 181.58 0 0 1-12.05-6.87v-67.73a154.58 154.58 0 0 1-17.15-12.21zM121.22 168.12l-.21-.21z"/><path class="cls-3" d="M448.59 185.75c-3.84 2.38-7.84 4.69-12 6.88v67.86c4.21-2.2 8.21-4.5 12-6.88v-67.87zM407.34 205.21v67.86q6.19-2.19 12-4.61v-67.87q-5.84 2.42-12 4.61zM378.15 281.58q6.15-1.45 12-3.11v-67.85q-5.9 1.65-12 3.11zM361 217.25q-5.92 1.05-12 1.91V287q6.11-.86 12-1.91zM319.77 289.94q6.1-.36 12.05-.9v-67.85q-5.95.54-12.05.9zM302.63 222.68c-2 0-4.06.09-6.12.09s-4-.06-5.93-.09v67.79c2 0 3.92.16 5.93.16s4.08-.06 6.12-.09zM465.73 241.35q3.28-2.73 6.26-5.56l.19-.18q2.94-2.81 5.6-5.71V162q-2.65 2.9-5.6 5.71l-.19.18c-2 1.89-4.07 3.74-6.26 5.56v67.86zM261.38 288.93c4 .36 8 .75 12.05 1v-67.84q-6.09-.36-12-.89zM232.19 285.11c3.93.7 8 1.26 12 1.83v-67.76q-6.11-.86-12-1.9zM203 278.45c2.36.66 4.79 1.27 7.18 1.9 1.63.43 3.2.89 4.87 1.29v-67.87q-6.15-1.44-12-3.1zM173.81 268.41c3.91 1.62 7.9 3.18 12.05 4.65v-67.79q-6.19-2.18-12-4.6zM144.61 253.6c3.84 2.38 7.84 4.67 12.05 6.87v-67.75c-4.21-2.19-8.22-4.49-12.05-6.86zM115.42 229.93q2.53 2.76 5.3 5.45c2.11 2.05 4.31 4.07 6.68 6l.07.06v-67.78c-2.19-1.81-4.26-3.66-6.25-5.53l-.21-.21q-2.94-2.79-5.58-5.67z"/><path class="cls-4" d="M103.15 145.73a94.27 94.27 0 0 0 12.28 16.52q2.65 2.88 5.58 5.67l.21.21c2 1.88 4.06 3.73 6.25 5.53a154.58 154.58 0 0 0 17.15 12.21c3.84 2.38 7.84 4.67 12.05 6.86q8.13 4.23 17.15 7.95 5.84 2.42 12 4.6 8.27 2.92 17.15 5.4 5.9 1.65 12 3.1 8.36 2 17.15 3.52 5.93 1 12 1.9c5.61.79 11.3 1.48 17.14 2q5.95.54 12 .89c5.62.33 11.35.51 17.15.59 2 0 3.94.09 5.93.09s4.08-.06 6.12-.09c5.79-.09 11.52-.26 17.14-.6q6.1-.36 12.05-.9c5.84-.54 11.54-1.24 17.15-2q6.1-.86 12-1.91 8.79-1.56 17.16-3.53 6.15-1.45 12-3.11 8.87-2.49 17.15-5.41 6.19-2.19 12-4.61 9-3.73 17.15-8c4.21-2.2 8.21-4.5 12-6.88a154 154 0 0 0 17.15-12.25c2.19-1.82 4.27-3.68 6.26-5.56l.19-.18q3-2.81 5.6-5.71a94.12 94.12 0 0 0 12.09-16.31 68.6 68.6 0 0 0 9.42-29.46 63.1 63.1 0 0 0-1.94-21C482.53 39.52 393.44 0 296.51 0s-186 39.52-200.84 95.31a63.12 63.12 0 0 0-1.94 21 68.59 68.59 0 0 0 9.42 29.42zm28.28-50.42C141.58 48.85 215 15.17 296.51 15.17s154.93 33.68 165.08 80.14C473.16 148.29 399.95 197 296.51 197S119.86 148.29 131.43 95.31z"/><path class="cls-5" d="M296.51 197c103.44 0 176.65-48.73 165.08-101.71C451.44 48.85 378 15.17 296.51 15.17S141.58 48.85 131.43 95.31C119.86 148.29 193.07 197 296.51 197zm-5.72-147.75l.46-11.86 17.32-.67-.11 12.28c15.41.72 28.76 4.51 39.85 11L333 75.13a64.94 64.94 0 0 0-24.67-8.84l-.18 20.29c21 3.79 45.48 9.93 46.86 32.14 1.2 19.29-14.56 34.27-47.46 35.86l-.15 17-21.25-1 .64-16.57c-22.21-2.39-37.49-9.86-47.36-19.39l16.86-17.17c6.83 6.36 17.38 12.31 31.34 14.61l1-25.65c-20.18-4.09-41.11-9.81-39.11-29.27 1.38-13.7 16.69-25.33 41.27-27.89z"/><path class="cls-5" d="M276.5 75.09c-.25 4.1 5 6.32 13 8l.66-17.24c-8.51.97-13.38 4.5-13.66 9.24zM307.72 132.51c10.57-1.48 15.94-6.32 15.86-11.54-.08-5.46-6.68-8.3-15.66-10.63z"/><path class="cls-2" d="M249.49 77.15c-2 19.45 18.92 25.17 39.11 29.27l-1 25.65c-14-2.31-24.51-8.26-31.34-14.61l-16.86 17.16c9.87 9.53 25.15 17 47.36 19.39l-.64 16.57 21.25 1 .15-17C340.42 153 356.18 138 355 118.72c-1.38-22.21-25.89-28.35-46.86-32.14l.18-20.29A64.94 64.94 0 0 1 333 75.13L348.31 60c-11.09-6.49-24.44-10.29-39.85-11l.11-12.24-17.32.67-.46 11.86c-24.58 2.52-39.89 14.15-41.3 27.86zM323.58 121c.08 5.21-5.29 10.05-15.86 11.54l.2-22.17c8.97 2.3 15.58 5.14 15.66 10.63zm-34.09-37.94c-8-1.65-13.24-3.88-13-8 .28-4.74 5.16-8.27 13.65-9.26z"/></svg>
