<svg xmlns="http://www.w3.org/2000/svg" viewBox="0 0 441.22 500"><defs><style>.cls-1{fill:#0093b9}</style></defs><path class="cls-1" d="M9.85 384.06L210.61 500V374.37l-91.98-53.13L9.85 384.06zM108.61 197.85l-109-62.81v231.87l109-62.82V197.85zM118.66 180.71l91.95-53.13V1.95L9.83 117.89l108.83 62.82zM431.37 117.89L230.61 1.95v125.63l91.98 53.13 108.78-62.82zM332.61 197.85v106.24l109 62.82V135.04l-109 62.81zM230.61 374.37V500l200.76-115.94-108.78-62.82-91.98 53.13zM441.22 378.35v-.01.01zM0 378.35v-.01.01z"/></svg>
