<svg xmlns="http://www.w3.org/2000/svg" viewBox="0 0 503 500"><defs><style>.cls-1{fill:#e7858f}.cls-2{fill:#da7580}.cls-3{fill:#b5c5cb}.cls-4{fill:#f1a1ab}.cls-5{fill:#c8d8de}.cls-6{fill:#ad6dac}.cls-7{fill:#99afb5}</style></defs><path class="cls-1" d="M18.82 213.39v182.34l67.34 29.93V243.31l-67.34-29.92zM249.53 315.91l-1.28-.57-82.76-36.78v182.35l82.76 36.78 1.28.56 83.19-36.96V278.94l-83.19 36.97zM412.05 426.04l68.18-30.31V213.39l-68.18 30.3v182.35z"/><path class="cls-2" d="M86.16 220.57l-67.34-29.92v22.74l67.34 29.92v-22.74zM412.05 220.95v22.74l68.18-30.3h.01v-22.74l-68.19 30.3zM165.49 255.82v22.74l82.76 36.78 1.28.57 83.19-36.97V256.2l-83.19 36.97-84.04-37.35z"/><path class="cls-3" d="M323.35 31.22L249.53 1.74l73.74 29.54zM28.79 89.89L0 101.39v.31L29.21 90l-.42-.11zM249.53 1.74l-67.72 27 .08.05zM474.06 91.4l-.43.11 25.43 10.19v-.31l-25-9.99z"/><path class="cls-1" d="M410.55 141.03l1.5.65v79.27l68.19-30.3 18.82-8.37V101.7l-88.51 39.33zM86.16 141.68l1.93-.84L0 101.7v80.58l18.82 8.37 67.34 29.92v-78.89zM249.53 212.58l-82.95-36.86-1.09.49v79.61l84.04 37.35 83.19-36.97v-79.99l-.67-.3-82.52 36.67z"/><path class="cls-4" d="M217.32 57.71L240 67.47c6.52-3.85 14.83-3.6 21.67-1.46l39-16.81a278.61 278.61 0 0 1 22.66-17.92l-73.8-29.54-67.65 27.1a280.23 280.23 0 0 1 35.44 28.87zM405.68 109.21L399 111.3a30.27 30.27 0 0 1-10.92 10.34c-.08.21-1.5 3.69-6.37 7L410.55 141l88.51-39.33-25.43-10.16zM88.09 140.84l33.67-14.52a18.67 18.67 0 0 1-2.8-.71c-5.18-2-7.89-7.69-9.17-14.49l-4.29-1.26L29.21 90 0 101.7zM249.53 212.58l82.52-36.67L259.83 144c-2 .22-4.11.39-6.42.47a55.85 55.85 0 0 1-13.71-1.06l-73.12 32.32z"/><path class="cls-5" d="M220.33 116.72s-77.12 14-98.57 9.6l-33.67 14.52-1.93.83V426l79.33 35.25V176.21l1.09-.48 73.12-32.33c-23.85-5.08-19.37-26.68-19.37-26.68zM410.55 141l-28.84-12.43c-3.31 2.23-8.17 4.33-15.41 5.17-14.94 1.73-60.7-8.71-76.55-12.48-3.43-.82-5.53-1.34-5.53-1.34a15.53 15.53 0 0 1 .68 3.48c.54 6-1.5 17.92-25.07 20.56l72.22 31.93.67.29v285.11L412 426V141.68z"/><path class="cls-6" d="M409.9 46.1q-2.58 1.75-4.82 3.33z"/><path class="cls-5" d="M405.68 109.21l67.95-17.7.42-.11 9.4-2.4L453 58.8 470.32 16c-22.75 6.48-45.09 19.72-60 29.77.09.07 16.6 17.39-4.64 63.44z"/><path class="cls-7" d="M403.14 100.44A30.57 30.57 0 0 1 399 111.3l6.69-2.09c21.23-46.05 4.72-63.38 4.68-63.42l-.46.32-4.81 3.36c1.78 13.47 1.75 29.78-1.96 50.97z"/><path class="cls-6" d="M105.59 50.87c-2-1.46-4.34-3.07-6.83-4.76l6.83 4.77z"/><path class="cls-5" d="M105.49 109.87c-21.23-46-7.24-64-7.2-64.08C83.43 35.74 61.08 22.5 38.34 16l17.33 42.8L25.21 89l3.58.93.42.11zM405.08 49.47c-1.86-14-5.68-24.86-9.49-34.84S383.09-.34 375 2.87a247.12 247.12 0 0 0-51.65 28.35l-.08.06a278.61 278.61 0 0 0-22.66 17.92L261.63 66c5 1.55 9.12 4 11.07 6.47a8.37 8.37 0 0 1 3 1.51c2.53 1.85 6 6 7.92 15C310.5 74.94 340 56.3 368.58 54.55c11.09-.68 11.8 18.11 2 22-13.05 5.26-27.15 6-40.57 9.38a275.78 275.78 0 0 0-45 15.43c.11 3.51 0 7.52-.3 11.93l84.42 12a29.69 29.69 0 0 0 18.89-3.68A30.27 30.27 0 0 0 399 111.3a30.57 30.57 0 0 0 4.15-10.86c3.7-21.19 3.73-37.5 1.93-50.97zM181.88 28.84l-.08-.05a245.41 245.41 0 0 0-48.15-25.92c-8.09-3.21-16.75 1.68-20.59 11.72a109.32 109.32 0 0 0-7.47 36.27c-.52 14.61 1.52 32.17 7.66 54.79a21.73 21.73 0 0 0 22.82 15.8L220.6 113a67.41 67.41 0 0 1 .1-12.84A280.29 280.29 0 0 0 178.6 86c-13.41-3.43-27.51-4.11-40.57-9.38-9.76-3.93-9.05-22.73 2-22 28 1.72 57 19.71 83.43 33.69a32.39 32.39 0 0 1 9.56-13.79l.1-.16c.36-.62.71-1.27 1.1-1.81a18 18 0 0 1 5.7-5l-22.64-9.76a280.23 280.23 0 0 0-35.4-28.95z"/><path class="cls-7" d="M369.19 125.32l-84.42-12c.3-4.41.41-8.42.3-11.93a275.78 275.78 0 0 1 45-15.43c13.41-3.43 27.51-4.11 40.57-9.38 9.76-3.93 9.05-22.73-2-22C340 56.3 310.5 74.94 283.66 89c-1.94-9-5.4-13.17-7.92-15a8.37 8.37 0 0 0-3-1.51c2.16 2.75 4.2 10.36 5.93 19.17.72 3.66 1.39 7.51 2 11.33 1.39 8.9 2.42 17.52 2.91 22.64.09.9.16 1.7.21 2.37l-8.61 5.84a38.67 38.67 0 0 1-43.45 0l-8.65-5.84a255.43 255.43 0 0 1 2.27-25.81c.57-4 1.27-8 2.15-11.84 1.38-6.14 3.2-11.77 5.57-15.88a32.39 32.39 0 0 0-9.56 13.79c-26.43-14-55.4-32-83.43-33.69-11.09-.68-11.8 18.11-2 22 13.05 5.26 27.15 6 40.57 9.38a280.29 280.29 0 0 1 42.1 14.19 67.41 67.41 0 0 0-.1 12.84l-84.53 8.47a21.73 21.73 0 0 1-22.82-15.8c-6.14-22.62-8.18-40.18-7.66-54.79l-6.88-4.76-.46-.32c0 .05-14 18 7.2 64.08l4.29 1.26c1.28 6.8 4 12.45 9.17 14.49a18.67 18.67 0 0 0 2.8.71c21.45 4.44 98.57-9.6 98.57-9.6s-4.48 21.59 19.37 26.68a55.85 55.85 0 0 0 13.71 1.06c2.31-.08 4.43-.25 6.42-.47 23.57-2.64 25.61-14.56 25.07-20.56a15.53 15.53 0 0 0-.68-3.48s2.09.52 5.53 1.34c15.85 3.78 61.61 14.21 76.55 12.48 7.24-.84 12.1-2.94 15.41-5.17 4.87-3.27 6.29-6.75 6.37-7a29.69 29.69 0 0 1-18.89 3.72z"/><path class="cls-5" d="M227.5 90.33c-.87 3.87-1.58 7.89-2.15 11.84a255.43 255.43 0 0 0-2.27 25.83l8.61 5.84a38.67 38.67 0 0 0 43.45 0l8.61-5.84c-.05-.66-.12-1.47-.21-2.37-.54-5.13-1.54-13.76-2.92-22.63-.6-3.82-1.26-7.67-2-11.33-1.73-8.81-3.77-16.42-5.93-19.17-2-2.48-6.12-4.92-11.07-6.47-6.84-2.14-15.15-2.39-21.67 1.46a18 18 0 0 0-5.7 5c-.39.54-.74 1.19-1.1 1.81l-.1.16c-2.35 4.09-4.17 9.73-5.55 15.87z"/></svg>
