<svg xmlns="http://www.w3.org/2000/svg" viewBox="0 0 503 500"><defs><style>.cls-1{fill:#b5c5cb}.cls-2{fill:#99afb5}.cls-3{fill:#c8d8de}.cls-4{fill:#cc6a56}.cls-5{fill:#b74e3d}</style></defs><path class="cls-1" d="M21.15 214.01v182.75l67.49 29.99V244l-67.49-29.99zM252.37 316.75l-1.27-.56-82.95-36.86v182.75l82.95 36.86 1.27.57 83.38-37.05V279.71l-83.38 37.04zM415.25 427.13l68.34-30.37V214.01l-68.34 30.37v182.75z"/><path class="cls-2" d="M88.64 221.21l-67.49-29.99v22.79L88.64 244v-22.79zM168.15 256.54v22.79l82.95 36.86 1.27.56 83.38-37.05v-22.78l-83.38 37.04-84.22-37.42zM415.25 221.59v22.79l68.34-30.37v-22.79l-68.34 30.37z"/><path class="cls-1" d="M252.37 1.9L184.5 29l.08.05z"/><path class="cls-1" d="M326.36 31.44l-74-29.54 73.9 29.6zM31.14 90.24L2.29 101.76v.31l29.27-11.73-.42-.1zM477.4 91.75l-.43.11 25.48 10.21v-.31L477.4 91.75zM413.75 141.49l1.5.65v79.45l68.34-30.37 18.86-8.38v-80.77l-88.7 39.42z"/><path class="cls-1" d="M88.64 142.14l1.94-.84-88.29-39.23v80.77l18.86 8.38 67.49 29.99v-79.07zM252.37 213.2l-83.12-36.94-1.1.48v79.8l84.22 37.42 83.38-37.04v-80.18l-.67-.29-82.71 36.75z"/><path class="cls-3" d="M408.87 109.6l-6.7 2.09a30.34 30.34 0 0 1-10.94 10.36c-.08.21-1.51 3.7-6.38 7l28.9 12.46 88.71-39.42L477 91.86zM220.09 58l22.69 9.79c6.54-3.86 14.87-3.61 21.72-1.46l39.07-16.85a279.22 279.22 0 0 1 22.71-18L252.37 1.9l-67.8 27.16A280.85 280.85 0 0 1 220.09 58zM90.58 141.3l33.74-14.55a18.72 18.72 0 0 1-2.81-.71c-5.19-2-7.91-7.71-9.19-14.52l-4.3-1.26-76.46-19.91-29.27 11.72zM252.37 213.2l82.71-36.75-72.38-32c-2 .22-4.12.39-6.44.47a56 56 0 0 1-13.74-1.06l-73.28 32.39z"/><path class="cls-4" d="M223.11 117.13s-77.29 14.08-98.79 9.62L90.58 141.3l-1.93.83v285l79.51 35.33V176.74l1.09-.48 73.28-32.39c-23.91-5.1-19.42-26.74-19.42-26.74zM413.75 141.49L384.85 129c-3.32 2.23-8.19 4.34-15.44 5.18-15 1.73-60.84-8.73-76.72-12.51-3.44-.82-5.54-1.34-5.54-1.34a15.57 15.57 0 0 1 .68 3.49c.54 6-1.51 18-25.13 20.61l72.38 32 .67.3v285.73l79.51-35.33v-285zM413.1 46.35q-2.58 1.75-4.83 3.34zM408.87 109.6L477 91.86l.43-.11 9.41-2.45-30.56-30.22 17.37-42.88c-22.8 6.49-45.19 19.8-60.09 29.8.05.08 16.59 17.45-4.69 63.6z"/><path class="cls-5" d="M406.33 100.81a30.64 30.64 0 0 1-4.15 10.88l6.7-2.09c21.28-46.15 4.73-63.52 4.69-63.56l-.46.32-4.82 3.37c1.78 13.5 1.71 29.85-1.96 51.08z"/><path class="cls-4" d="M108.12 51.13c-2-1.46-4.35-3.07-6.85-4.77l6.85 4.78zM108 110.26c-21.26-46.15-7.24-64.17-7.2-64.26-14.9-10-37.29-23.31-60.09-29.8l17.37 42.88L27.55 89.3l3.59.94.42.11zM408.27 49.72c-1.87-14-5.69-24.92-9.51-34.92S386.23-.19 378.13 3a247.66 247.66 0 0 0-51.77 28.41l-.08.06a279.22 279.22 0 0 0-22.71 18L264.5 66.3c5 1.55 9.14 4 11.1 6.48a8.38 8.38 0 0 1 3 1.52c2.53 1.85 6 6 7.94 15.06 26.89-14.11 56.48-32.78 85.1-34.54 11.11-.68 11.82 18.16 2 22.1-13.08 5.27-27.21 6-40.65 9.4A276.39 276.39 0 0 0 288 101.78c.11 3.52 0 7.54-.3 12l84.61 12a29.76 29.76 0 0 0 18.93-3.69 30.34 30.34 0 0 0 10.94-10.36 30.64 30.64 0 0 0 4.15-10.88c3.67-21.27 3.74-37.62 1.94-51.13z"/><path class="cls-4" d="M184.58 29.05l-.08-.05a246 246 0 0 0-48.26-26c-8.1-3.22-16.79 1.69-20.63 11.75a109.56 109.56 0 0 0-7.49 36.35c-.52 14.64 1.52 32.24 7.68 54.91a21.78 21.78 0 0 0 22.87 15.84l84.72-8.49a67.55 67.55 0 0 1 .1-12.86 280.92 280.92 0 0 0-42.19-14.22c-13.44-3.43-27.57-4.12-40.65-9.4-9.78-3.94-9.07-22.78 2-22.1 28.09 1.73 57.12 19.75 83.61 33.76a32.46 32.46 0 0 1 9.58-13.82l.1-.16c.36-.62.72-1.27 1.1-1.81a18.09 18.09 0 0 1 5.71-5L220.09 58a280.85 280.85 0 0 0-35.51-28.95z"/><path class="cls-5" d="M372.3 125.74l-84.61-12c.3-4.42.41-8.44.3-12a276.39 276.39 0 0 1 45.08-15.47c13.44-3.43 27.57-4.12 40.65-9.4 9.78-3.94 9.07-22.78-2-22.1-28.62 1.76-58.21 20.43-85.1 34.54-1.95-9-5.41-13.2-7.94-15.06a8.38 8.38 0 0 0-3-1.52c2.17 2.76 4.21 10.38 5.94 19.21.72 3.67 1.39 7.53 2 11.36 1.39 8.92 2.42 17.56 2.91 22.69.09.9.16 1.71.21 2.37l-8.74 5.91a38.76 38.76 0 0 1-43.55 0l-8.62-5.86a256 256 0 0 1 2.28-25.87c.57-4 1.28-8 2.15-11.87 1.39-6.15 3.21-11.8 5.58-15.91a32.46 32.46 0 0 0-9.58 13.82c-26.49-14-55.52-32-83.61-33.76-11.11-.68-11.82 18.16-2 22.1 13.08 5.27 27.21 6 40.65 9.4a280.92 280.92 0 0 1 42.19 14.22 67.55 67.55 0 0 0-.1 12.86l-84.72 8.49A21.78 21.78 0 0 1 115.79 106c-6.15-22.67-8.19-40.27-7.68-54.91l-6.85-4.78-.46-.32c0 .05-14.06 18.07 7.22 64.22l4.3 1.26c1.29 6.82 4 12.47 9.19 14.52a18.72 18.72 0 0 0 2.81.71c21.5 4.45 98.79-9.62 98.79-9.62s-4.49 21.64 19.41 26.74a56 56 0 0 0 13.74 1.06c2.32-.08 4.44-.25 6.44-.47 23.62-2.65 25.67-14.59 25.13-20.61a15.57 15.57 0 0 0-.68-3.49s2.1.52 5.54 1.34c15.88 3.78 61.75 14.24 76.72 12.51 7.25-.84 12.12-2.95 15.44-5.18 4.88-3.28 6.31-6.77 6.38-7a29.76 29.76 0 0 1-18.93 3.76z"/><path class="cls-4" d="M230.29 90.67c-.88 3.88-1.58 7.91-2.15 11.87a256 256 0 0 0-2.28 25.87l8.62 5.86a38.76 38.76 0 0 0 43.55 0l8.62-5.86c-.05-.67-.13-1.47-.21-2.37-.49-5.13-1.52-13.77-2.91-22.69-.6-3.83-1.27-7.69-2-11.36-1.73-8.83-3.77-16.46-5.94-19.21-2-2.49-6.13-4.93-11.1-6.48-6.85-2.14-15.18-2.4-21.72 1.46a18.09 18.09 0 0 0-5.71 5c-.39.54-.74 1.19-1.1 1.81l-.1.16c-2.36 4.15-4.18 9.79-5.57 15.94z"/></svg>
