<svg xmlns="http://www.w3.org/2000/svg" viewBox="0 0 503 500"><defs><style>.cls-1{fill:none}.cls-2{fill:#b5c5cb}.cls-3{fill:#99afb5}.cls-4{fill:#c8d8de}.cls-5{fill:#0093b9}.cls-6{fill:#00759c}</style></defs><path class="cls-1" d="M391 121.49a31.8 31.8 0 0 0 6.12-4.49 31.79 31.79 0 0 1-6.12 4.49zM401.99 111.11l.01-.01-.01.01zM251.69 316.7l-1.12-.5 1.03.54.09-.04zM387.68 126c-.28.27-.59.55-.92.83.33-.25.64-.52.92-.83zM389.7 123.73l-.24.32zM263.94 65.59c5 1.56 9.17 4 11.13 6.5 2.17 2.76 4.22 10.41 6 19.27.72 3.68 1.39 7.55 2 11.39 1.4 8.94 2.43 17.61 2.92 22.75.09.9.16 1.71.21 2.38-.05-.67-.13-1.48-.21-2.38-.49-5.15-1.53-13.81-2.92-22.75-.6-3.84-1.27-7.71-2-11.39-1.74-8.86-3.78-16.5-6-19.27-1.96-2.5-6.15-4.94-11.13-6.5zM307.08 45.29c-1.35 1.14-2.68 2.28-4 3.41 1.32-1.13 2.64-2.27 4-3.41zM236.44 72.09a18.14 18.14 0 0 1 5.72-5 18.14 18.14 0 0 0-5.72 5z"/><path class="cls-2" d="M20 396.96l67 30.08V243.78L20 213.7v183.26zM415 428h.13L483 396.96V213.7l-68 30.46V428zM251.69 316.7l-.09.04-1.03-.54-.33-.03L167 279.29v183.18l83.34 36.96 1.17.57L335 462.85V279.74l-83.24 37-.07-.04z"/><path class="cls-3" d="M20 213.7l67 30.08v-22.85l-67-30.08v22.85zM415 244h.2l68.41-30H483v-23.15l-68 30.45V244zM167 256.35V280h.42l.15-.31 82.95 36.68.07-.07 1.11.45.08.01 83.07-37.01.15-.16v-22.86l-83.57 37.15L167 256.35z"/><path class="cls-2" d="M183.79 28.23L251.78 1l-68.06 27.18.08.05zM477.65 91.11l-.31.11L503 101.45v-.31l-25.35-10.03zM325.89 30.69l.08-.06L251.78 1l74.11 29.69zM29.93 89.59L1 101.14v.31L30.35 89.7l-.42-.11zM415 141.63V221h.2l68.71-30.3 19.09-8.26v-80.99l-89.23 39.53 1.23.65zM89.53 140.98L1 101.45v80.99l18.62 8.41L87 220.93V142h.51l2.02-1.02zM167.42 257l84.21 37.21L335 256.73v-80.39l-.48-.3-82.84 36.86-83.47-37.05-1.21.49V257h.42z"/><path class="cls-4" d="M219.41 57.24l22.76 9.81c6.56-3.87 14.91-3.62 21.78-1.47l39.17-16.88c1.28-1.13 2.61-2.26 4-3.41 5.66-4.79 11.92-9.71 18.81-14.6L251.78 1l-68 27.23a281.63 281.63 0 0 1 35.63 29.01zM408.72 109l-6.72 2.1a29 29 0 0 1-3.49 4.55q-.65.69-1.35 1.35a31.8 31.8 0 0 1-6.12 4.49 10.78 10.78 0 0 1-1.32 2.24l-.24.32a18.22 18.22 0 0 1-1.78 2c-.28.27-.59.55-.92.83a22.91 22.91 0 0 1-2.14 1.62l29 12.5 89-39.53L477 91.22zM89.53 140.8l33.84-14.59a18.77 18.77 0 0 1-2.81-.71c-5.2-2.05-7.93-7.73-9.22-14.56l-4.34-1.27-76.67-20L1 101.45l88.53 39.35zM334.72 176l-72.59-32c-2 .22-4.13.39-6.45.48a56.13 56.13 0 0 1-13.77-1.06l-73.48 32.48 83.36 37z"/><path class="cls-5" d="M222.44 116.45S144.93 131 123.37 126h-.13L90 140.8v-.1l-2.57 1.3H87v285.42l80 35.43V176h.42l1-.32 73.46-32.45c-23.88-5.11-19.44-26.78-19.44-26.78zM415 244.16V141.63l-1.31.37-29-13c-3.33 2.24-8.23 4.1-15.5 4.94-15 1.73-61-8.88-76.94-12.67-3.45-.82-5.56-1.41-5.56-1.41a15.08 15.08 0 0 1 .68 3.47c.54 6-1.51 18-25.2 20.65L334.52 176l.48.29v286.56L415 428zM408.72 109L477 91.22l.43-.11 9.44-2.46-30.61-30.31 17.42-43c-22.86 6.51-45.32 19.82-60.26 29.92.04.05 16.64 17.46-4.7 63.74z"/><path class="cls-6" d="M406.16 100.19A30.73 30.73 0 0 1 402 111.1l6.72-2.1c21.34-46.28 4.75-63.69 4.7-63.74l-.46.32-4.85 3.42c1.81 13.51 1.78 29.9-1.95 51.19z"/><path class="cls-5" d="M107 50.37c-2-1.46-4.35-3.08-6.85-4.78l6.85 4.79zM107 109.67c-21.34-46.28-7.28-64.35-7.24-64.4-14.94-10.1-37.4-23.41-60.26-29.92l17.42 43-30.59 30.3 3.6.94.42.11zM325.89 30.69c-6.89 4.89-13.16 9.82-18.81 14.6-1.35 1.14-2.68 2.28-4 3.41l-39.14 16.89c5 1.56 9.17 4 11.13 6.5a8.41 8.41 0 0 1 3 1.52c2.54 1.86 6 6 8 15.1 27-14.15 56.64-32.88 85.34-34.64 11.15-.68 11.86 18.21 2 22.16-13.12 5.29-27.29 6-40.77 9.42a277.16 277.16 0 0 0-45.2 15.51c.11 3.53 0 7.56-.31 12l84.84 12a29.84 29.84 0 0 0 19-3.7 31.79 31.79 0 0 0 6.12-4.49q.69-.65 1.35-1.35a29 29 0 0 0 3.49-4.55 30.73 30.73 0 0 0 4.17-10.92c3.73-21.29 3.76-37.68 2-51.23l4.9-3.34q-2.59 1.76-4.84 3.35c-1.87-14-5.71-25-9.54-35S386-1.09 377.88 2.13A248.36 248.36 0 0 0 326 30.63l-.08.06z"/><path class="cls-5" d="M114.76 105.44a21.95 21.95 0 0 0 23 15.88l85-8.52a67.71 67.71 0 0 1 .11-12.9 281.68 281.68 0 0 0-42.37-14.25c-13.48-3.44-27.65-4.14-40.77-9.42-9.81-4-9.1-22.84 2-22.16 28.17 1.73 57.28 19.81 83.85 33.86a32.55 32.55 0 0 1 9.61-13.86c-2.38 4.13-4.21 9.79-5.6 16-.88 3.89-1.59 7.93-2.16 11.9a256.71 256.71 0 0 0-2.29 25.94l8.65 5.87a38.87 38.87 0 0 0 43.67 0l8.65-5.87c-.05-.67-.13-1.48-.21-2.38-.49-5.15-1.53-13.81-2.92-22.75-.6-3.84-1.27-7.71-2-11.39-1.74-8.86-3.78-16.5-6-19.27-2-2.49-6.15-4.94-11.13-6.5-6.87-2.15-15.22-2.4-21.78 1.47a18.14 18.14 0 0 0-5.72 5 18.14 18.14 0 0 1 5.72-5l-22.76-9.81a281.63 281.63 0 0 0-35.61-29l-.08-.05a246.64 246.64 0 0 0-48.4-26c-8.13-3.23-16.9 1.69-20.75 11.78C110.53 24.49 107 36 107 50.37c-1 14.69 1.59 32.34 7.76 55.07z"/><path class="cls-6" d="M287.33 123.29a15.61 15.61 0 0 0-.68-3.5s2.11.52 5.56 1.34c15.93 3.79 61.92 14.28 76.94 12.54 7.27-.84 12.16-3 15.49-5.19a22.91 22.91 0 0 0 2.14-1.62c.33-.28.64-.55.92-.83a18.22 18.22 0 0 0 1.78-2l.24-.32a10.78 10.78 0 0 0 1.32-2.24 29.84 29.84 0 0 1-19 3.7l-84.84-12c.3-4.43.42-8.47.31-12a277.16 277.16 0 0 1 45.2-15.51c13.48-3.44 27.65-4.14 40.77-9.42 9.81-4 9.1-22.84-2-22.16-28.7 1.76-58.37 20.49-85.34 34.64-2-9.05-5.42-13.24-8-15.1a8.41 8.41 0 0 0-3-1.52c2.17 2.76 4.22 10.41 6 19.27.72 3.68 1.39 7.55 2 11.39 1.4 8.94 2.43 17.61 2.92 22.75.09.9.16 1.71.21 2.38l-8.65 5.87a38.87 38.87 0 0 1-43.67 0l-8.65-5.87a256.71 256.71 0 0 1 2.29-25.94c.57-4 1.28-8 2.16-11.9 1.39-6.17 3.22-11.83 5.6-16a32.55 32.55 0 0 0-9.61 13.86c-26.57-14-55.68-32.13-83.85-33.86-11.15-.68-11.86 18.21-2 22.16 13.12 5.29 27.29 6 40.77 9.42a281.71 281.71 0 0 1 42.31 14.26 67.74 67.74 0 0 0-.1 12.9l-85 8.52a21.84 21.84 0 0 1-22.94-15.88c-6.17-22.73-8.22-40.38-7.7-55.06l-6.85-4.79-.46-.32c0 .05-14.1 18.12 7.24 64.4l4.31 1.26c1.29 6.84 4 12.51 9.22 14.56a18.77 18.77 0 0 0 2.81.71c21.56 4.46 99.07-9.65 99.07-9.65s-4.51 21.7 19.46 26.81a56.13 56.13 0 0 0 13.77 1.06c2.32-.08 4.45-.25 6.45-.48 23.57-2.63 25.62-14.61 25.08-20.64z"/></svg>
