<svg xmlns="http://www.w3.org/2000/svg" viewBox="0 0 500 438.9"><defs><style>.cls-1{fill:#e7858f}.cls-2{fill:#da7580}</style></defs><path class="cls-1" d="M500 124.47C500 55.48 444.07 0 375.07 0c-87.69 0-124.92 68.92-124.92 68.92v370C461.17 337.45 494 185 499.06 140.09c.15-1.28.28-3.46.39-4.75.54-5.82.55-10 .55-10h-.09a3 3 0 0 0 .09-.87z"/><path class="cls-2" d="M250.15 106.16V68.92S212.91 0 125.22 0C56.22 0 .29 55.48.29 124.48a3 3 0 0 0 .09.9H.29s0 4.15.55 10c.11 1.29.24 3.47.39 4.75C6.33 185 39.12 337.45 250.15 438.9V106.16z"/></svg>
