<svg xmlns="http://www.w3.org/2000/svg" viewBox="0 0 500 438.9"><defs><style>.cls-1{fill:#77c298}.cls-2{fill:#68b587}</style></defs><path class="cls-1" d="M500 123.58C500 54.58 444.07-.9 375.07-.9 287.38-.9 250.15 68 250.15 68v370C461.17 336.55 494 184.12 499.06 139.19c.15-1.28.28-3.46.39-4.75.54-5.82.55-10 .55-10h-.09a3 3 0 0 0 .09-.86z"/><path class="cls-2" d="M250.15 105.26V68S212.91-.9 125.22-.9C56.22-.9.29 54.58.29 123.58a3 3 0 0 0 .09.9H.29s0 4.15.55 10c.11 1.29.24 3.47.39 4.75C6.33 184.12 39.12 336.55 250.15 438V105.26z"/></svg>
