<svg xmlns="http://www.w3.org/2000/svg" viewBox="0 0 500 438.9"><defs><style>.cls-1{fill:#d2404a}.cls-2{fill:#c43b49}</style></defs><path class="cls-1" d="M500 125.22C500 56.22 444.07.74 375.07.74c-87.69 0-124.93 68.92-124.93 68.92v370C461.17 338.19 494 185.77 499.06 140.83c.15-1.28.28-3.46.39-4.75.54-5.82.55-10 .55-10h-.09a3 3 0 0 0 .09-.86z"/><path class="cls-2" d="M250.15 106.9V69.67S212.91.74 125.22.74C56.22.74.29 56.22.29 125.22a3 3 0 0 0 .09.9H.29s0 4.15.55 10c.11 1.29.24 3.47.39 4.75 5.1 44.93 37.89 197.36 248.91 298.81V106.9z"/></svg>
