<svg xmlns="http://www.w3.org/2000/svg" viewBox="0 0 500 498.06"><defs><style>.cls-1{fill:#1aadcd}</style></defs><path class="cls-1" d="M310.64 17.12S324.89 177.39 500 210.69c-65.93-12-199.95 104.51-195 190.62-3.27-64-71.38-180.95-189.32-193.57 57.37 4.68 183-76 194.94-190.62zM143.41 304.56s7.18 80.72 95.37 97.49c-33.21-6.06-100.71 52.64-98.2 96-1.65-32.25-35.95-91.13-95.35-97.49 28.9 2.36 92.18-38.29 98.18-96zM65.61 0s4.8 53.94 63.73 65.15c-22.2-4.06-67.34 35.17-65.62 64.15-1.1-21.55-24-60.9-63.72-65.15C19.31 65.73 61.59 38.57 65.61 0z"/></svg>
