<svg xmlns="http://www.w3.org/2000/svg" viewBox="0 0 419.87 500"><defs><style>.cls-1{fill:#0093b9}</style></defs><path class="cls-1" d="M224.41 267.7l-87.74-62.17a2.18 2.18 0 0 0-3.22 2.79l49.34 95.44a28.7 28.7 0 0 0 8 9.27 28.21 28.21 0 0 0 33.59-45.33z"/><path class="cls-1" d="M342.86 127.22l11.33-19.42a19.21 19.21 0 0 0-6.91-26.28l-15.67-9.15a19.21 19.21 0 0 0-26.28 6.91l-10.67 18.29a208.14 208.14 0 0 0-56.22-15.94V58.12h4.8a19.21 19.21 0 0 0 19.21-19.21V19.7A19.21 19.21 0 0 0 243.25.49H176a19.21 19.21 0 0 0-19.21 19.21v19.21A19.21 19.21 0 0 0 176 58.12h4.8v23.59C78.79 95.94 0 183.71 0 289.58c0 115.76 94.17 209.93 209.93 209.93s209.94-94.17 209.94-209.93a209.6 209.6 0 0 0-77.01-162.36zm-132.93 313.9c-83.56 0-151.54-68-151.54-151.54S126.37 138 209.93 138s151.54 68 151.54 151.54-67.98 151.58-151.54 151.58z"/></svg>
