<svg xmlns="http://www.w3.org/2000/svg" viewBox="0 0 352 500"><defs><style>.cls-1{fill:#dcf0f1}.cls-2{fill:#0093b9}.cls-3{fill:#f4ce86}</style></defs><path class="cls-1" d="M302.22 173.89C318.86 153.66 320.92 49 320.92 49H28.54s2.06 104.66 18.7 124.89c28.83 35.05 69.27 59.47 69.91 74.55-.64 15.08-41.08 38-69.91 73C30.6 341.69 28.54 444 28.54 444h292.38s-2.06-101.89-18.7-122.12c-28.83-35-69.27-58.91-69.91-74 .64-15.08 41.08-38.94 69.91-73.99zM254 419H95.44c19.6-12 44.35-28.05 61-37.22 11.43-6.31 25.22-7.06 36.65-.75C209.66 390.2 234.41 407 254 419zm-61-191.64a37.84 37.84 0 0 1-36.65 0c-27.35-15.1-76.87-44.42-88.89-65.47C61 150.46 58.45 136 57.77 118h233.92c-.68 18-3.21 32.46-9.74 43.89-12.03 21.05-61.55 50.36-88.9 65.47z"/><path class="cls-2" d="M320.92 49H333c9.11 0 19-4.08 19-13.18v-18C352 8.76 342.07 0 333 0H16.49C7.38 0 0 8.76 0 17.86v18C0 44.92 7.38 49 16.49 49h304.43zM28.54 444H16.49C7.38 444 0 453.62 0 462.73v18C0 489.79 7.38 500 16.49 500H333c9.11 0 19-10.21 19-19.32v-18c0-9.11-9.93-18.73-19-18.73H28.54z"/><path class="cls-3" d="M281.95 161.89c6.53-11.43 9.05-25.89 9.74-43.89H57.77c.68 18 3.21 32.46 9.74 43.89 12 21.05 61.55 50.76 88.89 65.86a37.85 37.85 0 0 0 36.65.2c27.35-15.11 76.87-45.01 88.9-66.06zM156.4 381.78C139.8 390.95 115 407 95.44 419H254c-19.6-12-44.35-28.8-61-38-11.38-6.29-25.17-5.54-36.6.78z"/></svg>
