<svg xmlns="http://www.w3.org/2000/svg" viewBox="0 0 314.59 500"><defs><style>.cls-1{fill:#b6b6b7}.cls-2{fill:#0093b9}.cls-3{fill:#1aadcd}.cls-4{fill:#fff}</style></defs><path class="cls-1" d="M272.18 116.81a116.82 116.82 0 0 0-228.4-34.62h.1a22.72 22.72 0 1 0 42.89 15 72.92 72.92 0 0 1 141.56 24.67v112.52h43.84z"/><path class="cls-2" d="M307.16 263.58a30.29 30.29 0 0 0-30.27-29.2H155.37v84.1c.65 0 1.27-.19 1.92-.19a26.63 26.63 0 0 1 12 50.43v35.37a12 12 0 0 1-12 12 11.35 11.35 0 0 1-1.92-.39V500H284.3a30.29 30.29 0 0 0 30.27-31.39zM0 468.61a30.29 30.29 0 0 0 1.09 9.26A30.29 30.29 0 0 1 0 468.61z"/><path class="cls-3" d="M145.29 404.09v-35.37a26.54 26.54 0 0 1 10.08-50.24v-84.1H37.71a30.29 30.29 0 0 0-30.27 29.2L0 468.61A30.29 30.29 0 0 0 30.29 500h125.08v-84.29a11.84 11.84 0 0 1-10.08-11.62z"/><path class="cls-4" d="M130.59 345a26.61 26.61 0 0 0 14.7 23.73v35.37a11.84 11.84 0 0 0 10.08 11.61 11.35 11.35 0 0 0 1.92.39 12 12 0 0 0 12-12v-35.38a26.63 26.63 0 0 0-12-50.43c-.66 0-1.28.15-1.92.19A26.62 26.62 0 0 0 130.59 345z"/></svg>
